<svg xmlns="http://www.w3.org/2000/svg" viewBox="0 0 5120 5120"><path fill="#666" d="M1536 1486c264-264 628-412 1024-412s760 148 1024 412L3980 297c33-99-50-214-165-214h-2510c-116 0-198 115-165 214zM1074 2560c0-396 148-760 412-1024L297 1140c-99-33-214 50-214 165v2510c0 116 115 198 214 149l1190-397A1369 1369 0 01 1073 2560zm2510 1074c-264 264-628 412-1024 412s-760-148-1024-412L1140 4823c-33 99 50 214 165 214h2510c116 0 198-115 149-214zM4823 1140l-1190 396c248 264 413 628 413 1024s-148 760-412 1024L4823 3980c99 33 214-50 214-148V1305c0-116-115-198-214-165"/><path fill="#1ed760" d="M2560 1061a1500 1500 0 10 1 2999 1500 1500 0 00-1-3000"/><path d="M3470 2410c-31 0-50-8-78-24-430-257-1200-319-1698-180-21 6-48 16-77 16-178-27-180-242-36-287 636-154 1410-108 1951 197 136 89 67 274-62 277zm-187 460c-32 0-53-14-74-25-536-300-998-301-1514-162-160-30-140-208-24-243 548-143 1190-79 1660 193 119 77 59 234-48 237zM3120 3267c-25 0-40-8-64-22-463-268-902-242-1322-133-129-20-116-173-13-197 495-110 1000-100 1433 159 94 60 59 190-34 193"/></svg>