<svg xmlns="http://www.w3.org/2000/svg" fill="#000" version="1.1" viewBox="0 0 2400000 2400000"><defs><clipPath id="a"><path d="M0 878400v643200h301400l376800 185700V692800L301400 878400" stroke-width="75400"/></clipPath><clipPath id="b" clipPathUnits="userSpaceOnUse"><path d="M678185 692835 2720000-452325v3289758L678185 1707335" fill="#0f0" clip-path="none" style="mix-blend-mode:screen"/></clipPath></defs><path d="M2048573 351552c-468500-468500-1228700-468500-1697100 0-468400 468400-468400 1228700 0 1697000 468400 468500 1228700 468500 1697100 0s468400-1228600 0-1697000" fill="#1ed760"/><path d="M2400000 1200000C2400000 537600 1862400 0 1200000 0S0 537600 0 1200000s537600 1200000 1200000 1200000 1200000-537600 1200000-1200000" fill="#000" clip-path="url(#a)" transform="rotate(-45 1200100 1199938)"/><path d="M2399946 1200035C2399946 537476 1862403-66 1199915 5 537497 4-116 537617-45 1199964c-71 662488 537542 1200101 1200030 1200030 662489-70 1199960-537542 1199960-1199960" fill="#0f0" clip-path="url(#b)" style="mix-blend-mode:normal" transform="rotate(-45 1200050 1199938)"/><path d="M1976149 1441884c-18787-15059-26584-29022-35312-51447C1806677 1030700 1376295 625200 1011988 469675c-15902-6813-36793-14064-54135-27964-47690-38226-54353-104687-15837-152739 39384-49135 92030-52628 132076-35960 157000 64725 313539 161120 468530 285354 263740 211401 496108 487854 603662 767515 15148 38846 15620 76015-18842 119008-39384 49135-107216 52325-151293 16995zm-332667 185528c-18787-15059-24772-33504-32276-50794-118656-314670-412227-638400-776893-797181-21106-9204-34264-12036-50522-25068-38655-30986-44892-87612-13906-126270 30986-38658 70334-49250 115944-29900 123027 52326 242428 113614 392724 234084 234476 187944 414380 427685 507716 676961 15364 40799 8970 72466-16224 103898-31637 38730-87180 45836-126560 14270zm-287158 159105c-15174-12163-20803-24389-28232-43992-116558-316549-374220-532572-675832-687100-16986-7680-40046-16670-50523-25067-35045-28090-34785-73575-11328-102840 29828-37212 66056-37250 97786-21310 348310 171781 646075 419950 780380 780986 10744 31755 13614 54825-12738 87703-26353 32876-70248 35077-99513 11620"/></svg>
