<svg version="1.1" viewBox="0 0 51200 51200">
  <path fill="#1ed760" style="opacity:0.6" d="m 45332.4,6068.2569 c -4724,-4862.8 -11974.4,-7062.2 -18603.8,-5643.6 -6651,1314.1 -12444,6197.4 -14864.3,12530.2001 -3839.0004,10700.5 -14291.0041,28060.404 -18117.5041,38765.604 l 5771.99997,5775 C 10363.596,53580.061 27884.6,43094.957 38712.6,39135.657 c 6269,-2581.3 11002.7,-8497 12146.4,-15179.4 1194.4,-6408.6 -943.1,-13265.4 -5526.6,-17888.0001 z" />
   <circle fill="#1ed760" cx="30851.1" cy="20365.3" r="20365.3" />
  <path d="M44280 17800c-420 30-700-50-1080-230-6140-2960-16610-2880-23190-400-280 120-640 280-1030 310a1900 1900 0 01-2080-1760 1940 1940 0 01 1260-2080 34400 34400 0 01 9500-2100c5960-520 12330 170 17120 2430a1930 1930 0 01 1230 1740 1900 1900 0 01-1730 2080zm-1980 6440c-430 30-720-130-1040-260-5370-2570-13100-3100-19720-670-380 140-590 260-950 300a1600 1600 0 01-1730-1450c-70-870 300-1500 1110-1800a27600 27600 0 01 7900-1830c5320-460 10550 400 14800 2450a1700 1700 0 01 1070 1530 1600 1600 0 01-1440 1730zm-1720 5560c-340 30-570-60-900-220-5380-2620-11340-2230-17080-500-310 100-720 280-960 300-800 60-1340-520-1400-1180-70-840 380-1290 980-1480 6580-2070 13430-2550 19570 430 530 280 850 530 910 1280 80 740-460 1300-1120 1360" />
</svg>